<svg xmlns="http://www.w3.org/2000/svg" width="48.001" height="37.556" viewBox="0 0 48.001 37.556">
  <path id="ic-oto" d="M1657.857,2185.583h-9.713a5.62,5.62,0,0,1-11.087,0H1635.8a2.8,2.8,0,0,1-2.8-2.739v-27.071a3.041,3.041,0,0,1,3.12-3.052h33.84a3.023,3.023,0,0,1,3.04,3.052v18.856h3.2v-2.347a.8.8,0,0,1,1.6,0v2.347h2.4a.783.783,0,1,1,0,1.565H1673v9.389h-4.056a5.62,5.62,0,0,1-11.087,0Zm1.543-.783a4,4,0,1,0,4-3.912A3.919,3.919,0,0,0,1659.4,2184.8Zm-20.8,0a4,4,0,1,0,4-3.912A3.919,3.919,0,0,0,1638.6,2184.8Zm30.344-.782h2.457v-7.824h-36.8v6.65a1.217,1.217,0,0,0,1.2,1.174h1.257a5.5,5.5,0,0,1,5.017-4.67l.058,0c.066-.005.131-.011.2-.013.09,0,.18-.006.271-.006s.181,0,.271.006c.066,0,.131.008.2.013l.057,0a5.5,5.5,0,0,1,5.018,4.67h9.657a5.557,5.557,0,0,1,5.52-4.694h.08A5.521,5.521,0,0,1,1668.943,2184.018Zm-34.343-9.389h36.8v-18.856a1.5,1.5,0,0,0-1.52-1.487h-33.76a1.455,1.455,0,0,0-1.52,1.487v7.12h8a.783.783,0,1,1,0,1.565h-8v2.347h11.2a.782.782,0,1,1,0,1.564h-11.2Zm27.2,10.171a1.6,1.6,0,1,1,1.6,1.56A1.581,1.581,0,0,1,1661.8,2184.8Zm-20.8,0a1.6,1.6,0,1,1,1.6,1.56A1.581,1.581,0,0,1,1641,2184.8Z" transform="translate(-1633 -2152.722)" fill="#ed7e00"/>
</svg>
