<svg xmlns="http://www.w3.org/2000/svg" width="39.271" height="38.283" viewBox="0 0 39.271 38.283">
  <path id="ic-eat" d="M1229.441,1981.26a3.564,3.564,0,0,1-2.389-1.527,62.554,62.554,0,0,1-4.622-8.451c-1.2-2.444-2.438-4.963-3.441-6.585-.167.1-.3.182-.427.256-.358.211-.667.393-1.594,1.019a1.637,1.637,0,0,1-1.139.272c-.829-.105-2.275.077-4.536-5.462-1.111-2.722-4.371-12.2-4.789-13.9-.7-2.838-.5-3.311-.165-3.635a.766.766,0,0,1,1.134.165c3.1,3.69,23.754,30.574,25.164,32.711a3.221,3.221,0,0,1-.063,3.535,3.368,3.368,0,0,1-2.781,1.626A2.791,2.791,0,0,1,1229.441,1981.26Zm-10.129-18.309a.749.749,0,0,1,.523.319,70.147,70.147,0,0,1,3.936,7.368,62.363,62.363,0,0,0,4.474,8.211,2.184,2.184,0,0,0,1.386.949,1.968,1.968,0,0,0,1.758-2.872c-1.371-2.076-19.123-25.286-22.853-30.029-.345-.438-.814-1.208-.373.187,1.136,3.6,5.06,14.552,6.45,16.417.862,1.158.9,1.543,1.407,1.281a.14.14,0,0,0,.108-.028c.965-.652,2.186-1.372,2.687-1.691a.755.755,0,0,1,.4-.118A.743.743,0,0,1,1219.312,1962.951Zm-12.7,18.015a4.18,4.18,0,0,1-2.309-1.2c-1.043-1.088-1.575-3.043.355-4.973a93.656,93.656,0,0,1,9.42-7.815.751.751,0,0,1,1.044.145.731.731,0,0,1-.147,1.032,92.309,92.309,0,0,0-9.257,7.674c-1.018,1.016-1.139,2.082-.334,2.923a2.342,2.342,0,0,0,3.122.327c1.836-1.611,7.279-7.5,10.279-10.841a.752.752,0,0,1,1.053-.061.732.732,0,0,1,.062,1.04c-2.174,2.418-8.283,9.1-10.4,10.964a3.368,3.368,0,0,1-2.256.839A3.874,3.874,0,0,1,1206.613,1980.967Zm16.99-18.248a.746.746,0,0,1-.412-.214.73.73,0,0,1,.015-1.041l4.239-4.126c-2.075-2.474-2.222-5.156-.318-6.983l7.451-7.147a.752.752,0,0,1,1.054.015.731.731,0,0,1-.015,1.042l-6.475,6.21,1.29,1.275,5.991-5.747a.752.752,0,0,1,1.054.015.731.731,0,0,1-.015,1.042l-5.977,5.732,1.324,1.309,5.956-5.713a.752.752,0,0,1,1.054.015.731.731,0,0,1-.015,1.042l-5.941,5.7,1.406,1.391,1-1c1.426-1.43,3.2-3.209,5.1-5.035a.751.751,0,0,1,1.054.016.732.732,0,0,1-.015,1.042c-1.892,1.813-3.659,3.587-5.08,5.01-.927.93-1.66,1.664-2.176,2.16a4.311,4.311,0,0,1-3.4,1.027c-.135-.013-.27-.03-.4-.051a6.051,6.051,0,0,1-2.859-1.313l-4.242,4.13a.752.752,0,0,1-.642.2Zm5.454-5.809a4.581,4.581,0,0,0,2.83,1.378,2.872,2.872,0,0,0,2.228-.617l.1-.094-6.139-6.072C1226.5,1953.137,1227.533,1955.356,1229.057,1956.91Z" transform="translate(-1203.365 -1942.999)" fill="#ed7e00"/>
</svg>
