<svg xmlns="http://www.w3.org/2000/svg" width="40.727" height="38.284" viewBox="0 0 40.727 38.284">
  <path id="ic-aa" d="M1241.2,2189.8l-.486-.49c-.015,0-.029.006-.044.006h-39.038V2185.9h24.155l15.413-15.524a.676.676,0,0,1,.959,0,.686.686,0,0,1,0,.967l-8.684,8.746,5.77,5.811,2,2.015.913.919a.686.686,0,0,1,0,.967.674.674,0,0,1-.959,0Zm-38.211-1.851h36.374l-.679-.684h-35.695Zm24.718-2.05h9.619l-4.81-4.845Zm-23.334-.684a2.735,2.735,0,0,1,0-5.469h17.885l9.631-19.088a.662.662,0,0,1,.081-.268,1.331,1.331,0,0,0,.119-1.037,1.479,1.479,0,0,0-.683-.87,1.4,1.4,0,0,0-1.923.461.678.678,0,0,1-.927.251.686.686,0,0,1-.339-.593.675.675,0,0,1,.091-.341,1.335,1.335,0,0,0,.119-1.037,1.475,1.475,0,0,0-.684-.871,1.407,1.407,0,0,0-1.945.448.677.677,0,0,1-.927.25.686.686,0,0,1-.248-.934v0a8.868,8.868,0,0,1,12.346-3.08,9.4,9.4,0,0,1,4.349,5.438,8.718,8.718,0,0,1-.823,6.871l0,0a.676.676,0,0,1-.589.342.668.668,0,0,1-.338-.092.687.687,0,0,1-.248-.934,1.429,1.429,0,0,0-.587-1.92,1.394,1.394,0,0,0-1.922.46.679.679,0,0,1-1.267-.343.688.688,0,0,1,.091-.34,1.331,1.331,0,0,0,.121-1.037,1.48,1.48,0,0,0-.684-.87,1.409,1.409,0,0,0-1.773.255.467.467,0,0,1-.013.048l-8.6,17.044,8.971-9.036a2.707,2.707,0,0,1,3.839,0,2.754,2.754,0,0,1,0,3.866l-11.622,11.687a4.425,4.425,0,0,1-2.495.74Zm-1.357-2.735a1.364,1.364,0,0,0,1.357,1.368h19.005a3.1,3.1,0,0,0,1.686-.473l11.47-11.552a1.382,1.382,0,0,0,0-1.933,1.39,1.39,0,0,0-1.92,0l-11.145,11.224h-19.1A1.364,1.364,0,0,0,1203.018,2182.478Zm36.393-20.923a2.875,2.875,0,0,1,.79.673,7.772,7.772,0,0,0-3.909-8.013,7.653,7.653,0,0,0-8.842.6,2.926,2.926,0,0,1,.973.353,2.838,2.838,0,0,1,1.309,1.677c.02.07.038.14.052.211a2.807,2.807,0,0,1,2.3.242,2.837,2.837,0,0,1,1.309,1.677c.02.07.037.14.051.21a2.844,2.844,0,0,1,3.612,1.919c.02.07.038.14.052.21a2.76,2.76,0,0,1,.879-.141A2.822,2.822,0,0,1,1239.412,2161.554Zm-26.916,4.516v-1.414a5.386,5.386,0,0,1-2.645-1.107l-1,1a.674.674,0,0,1-.959,0,.686.686,0,0,1,0-.967l1-1a5.455,5.455,0,0,1-1.1-2.665h-1.4a.684.684,0,0,1,0-1.368h1.4a5.438,5.438,0,0,1,1.1-2.664l-1-1a.686.686,0,0,1,0-.967.675.675,0,0,1,.96,0l1,1a5.374,5.374,0,0,1,2.645-1.107V2152.4a.679.679,0,1,1,1.358,0v1.415a5.381,5.381,0,0,1,2.645,1.107l1-1a.674.674,0,0,1,.959,0,.686.686,0,0,1,0,.967l-1,1a5.453,5.453,0,0,1,1.1,2.664h1.4a.684.684,0,0,1,0,1.368h-1.406a5.463,5.463,0,0,1-1.1,2.665l1,1a.686.686,0,0,1,0,.967.674.674,0,0,1-.959,0l-1-1a5.386,5.386,0,0,1-2.645,1.107v1.414a.679.679,0,1,1-1.357,0Zm-3.394-6.836a4.073,4.073,0,1,0,4.073-4.1A4.092,4.092,0,0,0,1209.1,2159.234Z" transform="translate(-1201.635 -2151.714)" fill="#ed7e00"/>
</svg>
