<svg xmlns="http://www.w3.org/2000/svg" width="38.545" height="38.277" viewBox="0 0 38.545 38.277">
  <path id="ic-hotel" d="M1635.006,1981.277a.6.6,0,0,1-.642-.637v-2.552a.6.6,0,0,1,.642-.637h1.928v-33.812a.6.6,0,0,1,.642-.638H1669.7a.6.6,0,0,1,.642.638v33.812h1.928a.6.6,0,0,1,.643.637v2.552a.6.6,0,0,1-.643.637Zm.643-1.275h35.976v-1.276h-35.976Zm17.988-10.208h5.139a.605.605,0,0,1,.643.638v7.018h9.636v-33.175h-30.837v33.175h9.636v-7.018a.605.605,0,0,1,.643-.638Zm.642,7.656h3.855v-6.38h-3.855Zm-5.139,0h3.855v-6.38h-3.855Zm.643-8.932a.638.638,0,1,1,0-1.276h7.708a.638.638,0,1,1,0,1.276Zm10.921-3.19a.6.6,0,0,1-.642-.638v-3.828a.6.6,0,0,1,.642-.638h5.14a.6.6,0,0,1,.643.638v3.828a.605.605,0,0,1-.643.638Zm.643-1.276h3.855V1961.5h-3.855Zm-10.279,1.276a.605.605,0,0,1-.643-.638v-3.828a.605.605,0,0,1,.643-.638h5.14a.6.6,0,0,1,.643.638v3.828a.605.605,0,0,1-.643.638Zm.643-1.276h3.855V1961.5h-3.855Zm-10.279,1.275a.6.6,0,0,1-.642-.637v-3.828a.6.6,0,0,1,.642-.638h5.14a.6.6,0,0,1,.643.638v3.828a.6.6,0,0,1-.643.637Zm.643-1.275h3.855V1961.5h-3.855Zm18.63-5.742a.6.6,0,0,1-.642-.638v-3.828a.6.6,0,0,1,.642-.638h5.14a.605.605,0,0,1,.643.638v3.828a.6.6,0,0,1-.643.638Zm.643-1.276h3.855v-2.552h-3.855Zm-10.279,1.276a.6.6,0,0,1-.643-.638v-3.828a.605.605,0,0,1,.643-.638h5.14a.605.605,0,0,1,.643.638v3.828a.6.6,0,0,1-.643.638Zm.643-1.276h3.855v-2.552h-3.855Zm-10.279,1.276a.6.6,0,0,1-.642-.638v-3.828a.6.6,0,0,1,.642-.638h5.14a.605.605,0,0,1,.643.638v3.828a.6.6,0,0,1-.643.638Zm.643-1.276h3.855v-2.552h-3.855Zm18.63-5.741a.6.6,0,0,1-.642-.638v-3.828a.6.6,0,0,1,.642-.638h5.14a.605.605,0,0,1,.643.638v3.828a.605.605,0,0,1-.643.638Zm.643-1.276h3.855v-2.552h-3.855Zm-10.279,1.276a.605.605,0,0,1-.643-.638v-3.828a.605.605,0,0,1,.643-.638h5.14a.605.605,0,0,1,.643.638v3.828a.605.605,0,0,1-.643.638Zm.643-1.276h3.855v-2.552h-3.855Zm-10.279,1.276a.6.6,0,0,1-.642-.638v-3.828a.6.6,0,0,1,.642-.638h5.14a.605.605,0,0,1,.643.638v3.828a.605.605,0,0,1-.643.638Zm.643-1.276h3.855v-2.552h-3.855Z" transform="translate(-1634.364 -1943)" fill="#ed7e00"/>
</svg>
