<?xml version="1.0" standalone="no"?>
<!DOCTYPE svg PUBLIC "-//W3C//DTD SVG 20010904//EN"
 "http://www.w3.org/TR/2001/REC-SVG-20010904/DTD/svg10.dtd">
<svg version="1.0" xmlns="http://www.w3.org/2000/svg"
 width="256.000000pt" height="256.000000pt" viewBox="0 0 256.000000 256.000000"
 preserveAspectRatio="xMidYMid meet">
<metadata>
Created by potrace 1.14, written by Peter Selinger 2001-2017
</metadata>
<g transform="translate(0.000000,256.000000) scale(0.100000,-0.100000)"
fill="#000000" stroke="none">
<path d="M956 2203 c-4 -4 -82 -8 -174 -9 -92 -1 -170 -2 -173 -3 -3 0 -5 -26
-4 -56 1 -33 -3 -55 -9 -55 -6 0 -4 -5 4 -10 12 -8 12 -10 -5 -11 l-20 0 20
-9 c13 -6 15 -9 5 -9 -9 -1 -11 -4 -5 -9 12 -8 13 -27 3 -38 -4 -4 -2 -14 5
-22 10 -13 9 -15 -8 -9 -17 6 -18 5 -5 -5 16 -14 22 -68 7 -68 -5 0 -3 -8 4
-17 12 -15 12 -16 -3 -10 -10 3 -20 2 -23 -4 -4 -5 -3 -9 2 -8 19 3 33 -2 33
-12 0 -5 -6 -7 -12 -3 -10 6 -10 5 -1 -7 10 -12 10 -18 1 -27 -9 -9 -9 -12 2
-12 13 0 13 -2 0 -10 -12 -8 -12 -10 -1 -10 10 0 11 -3 2 -13 -8 -10 -7 -17 2
-26 9 -9 9 -14 -3 -21 -13 -8 -13 -10 -1 -10 11 0 10 -4 -5 -16 -10 -8 -14
-13 -8 -10 7 3 14 -1 18 -9 3 -8 0 -15 -6 -15 -6 0 -5 -6 3 -17 12 -15 12 -16
-3 -10 -10 3 -20 1 -24 -5 -4 -6 -3 -8 2 -5 6 3 16 1 24 -4 13 -7 13 -10 1
-18 -11 -7 -11 -9 0 -14 10 -4 10 -6 2 -6 -7 -1 -13 -6 -13 -12 0 -5 4 -8 8
-5 4 2 8 -8 7 -24 0 -16 -4 -26 -10 -22 -5 3 -4 -2 4 -12 13 -15 13 -19 0 -27
-12 -7 -12 -9 0 -9 11 0 10 -4 -5 -16 -10 -8 -14 -13 -8 -10 7 3 14 -1 18 -9
3 -8 0 -15 -6 -15 -6 0 -5 -6 3 -17 12 -15 12 -16 -3 -10 -10 3 -20 2 -23 -4
-4 -5 -3 -9 2 -8 19 3 33 -2 33 -12 0 -5 -6 -7 -12 -3 -10 6 -10 5 -1 -7 10
-12 10 -18 1 -27 -9 -9 -9 -12 3 -12 12 0 12 -2 -1 -10 -12 -8 -12 -10 -1 -10
10 0 11 -3 2 -13 -8 -10 -7 -17 2 -26 9 -9 9 -14 -3 -21 -13 -8 -13 -10 -1
-10 11 0 10 -4 -5 -16 -10 -8 -14 -13 -8 -10 7 3 14 -1 18 -9 3 -8 0 -15 -6
-15 -6 0 -5 -6 3 -17 12 -15 12 -16 -3 -10 -10 3 -20 1 -24 -5 -4 -6 -3 -8 2
-5 6 3 16 1 24 -4 13 -7 13 -10 1 -18 -11 -7 -11 -9 0 -14 10 -4 10 -6 2 -6
-7 -1 -13 -6 -13 -12 0 -5 4 -8 8 -5 4 2 8 -8 7 -24 0 -16 -4 -26 -10 -22 -5
3 -4 -2 4 -12 13 -15 13 -19 0 -27 -12 -7 -12 -9 0 -9 11 0 10 -4 -5 -16 -10
-8 -14 -13 -8 -10 7 3 14 -1 18 -9 3 -8 0 -15 -6 -15 -6 0 -5 -6 3 -17 12 -15
12 -16 -3 -10 -10 3 -20 2 -23 -4 -4 -5 -3 -9 2 -8 19 3 33 -2 33 -12 0 -5 -6
-7 -12 -3 -10 6 -10 5 -1 -7 10 -12 10 -18 1 -27 -9 -9 -9 -12 3 -12 12 0 12
-2 -1 -10 -12 -8 -12 -10 -1 -10 10 0 11 -3 2 -13 -8 -10 -7 -17 2 -26 9 -9 9
-14 -3 -21 -13 -8 -13 -10 -1 -10 11 0 10 -4 -5 -16 -10 -8 -14 -13 -8 -10 7
3 14 -1 18 -9 3 -8 0 -15 -6 -15 -6 0 -5 -6 3 -17 12 -15 12 -16 -3 -10 -10 3
-20 2 -23 -4 -4 -5 -3 -9 2 -8 4 1 15 1 23 0 13 -1 13 -2 0 -11 -13 -9 -13
-10 0 -10 13 0 13 -1 0 -10 -13 -9 -13 -10 0 -10 13 0 13 -1 0 -10 -8 -5 -10
-10 -5 -10 12 0 13 -99 2 -117 -5 -8 -1 -11 13 -8 11 2 22 -1 25 -6 4 -5 10
-7 14 -5 4 3 24 1 44 -4 24 -5 39 -4 44 3 4 6 1 7 -7 2 -9 -5 -11 -4 -6 4 5 7
12 9 19 3 13 -10 83 -9 93 1 4 3 14 3 23 -1 20 -9 42 -9 58 1 19 12 25 -10 7
-27 -8 -9 -11 -16 -5 -16 6 0 16 9 23 20 16 25 32 27 19 2 -7 -14 -6 -19 4
-19 8 0 12 4 10 8 -3 4 -2 15 1 24 5 13 9 14 15 4 6 -10 11 -10 22 -1 11 10
17 9 27 -2 10 -13 8 -15 -9 -11 -14 3 -18 0 -14 -12 4 -10 8 -11 13 -3 4 6 11
12 16 13 5 1 8 9 7 17 -1 11 3 9 13 -4 13 -18 19 -15 15 7 -1 5 4 5 10 1 20
-12 100 -14 93 -2 -4 7 -2 8 4 4 9 -5 8 -12 -1 -27 -11 -18 -13 -18 -24 -2 -7
9 -13 12 -13 6 0 -6 7 -16 15 -23 12 -10 16 -9 21 4 3 9 10 16 16 16 5 0 6 -5
2 -12 -4 -7 -3 -8 4 -4 6 4 9 13 5 21 -4 11 -1 13 13 8 13 -5 15 -3 9 8 -8 12
-6 12 8 0 14 -11 17 -11 17 0 0 11 2 11 9 0 8 -12 12 -12 24 -2 11 8 17 9 22
1 3 -6 10 -8 15 -5 5 3 11 1 14 -4 3 -5 -8 -7 -24 -6 -17 1 -30 -1 -30 -5 0
-5 15 -7 33 -6 23 2 31 7 29 19 -2 10 2 17 8 17 6 0 8 -4 5 -10 -4 -6 6 -10
22 -10 23 0 25 2 13 11 -13 9 -13 10 1 6 9 -3 22 0 29 6 10 10 10 7 0 -11 -6
-13 -9 -26 -6 -30 3 -3 6 1 6 9 0 10 3 10 8 3 5 -8 11 -7 22 4 13 14 12 15 -2
9 -12 -4 -15 -2 -11 8 4 11 10 12 24 4 14 -7 19 -6 19 2 0 7 9 4 23 -7 12 -10
19 -15 15 -10 -11 14 29 49 56 48 16 0 23 5 19 12 -3 6 -3 8 2 4 4 -4 15 -2
23 4 11 10 17 8 29 -7 14 -19 15 -19 8 5 -4 14 -4 22 0 18 4 -4 19 2 33 12 17
14 28 17 37 10 9 -7 16 -5 26 7 13 16 12 17 -4 4 -15 -12 -17 -12 -11 3 3 9
12 16 19 16 7 0 18 6 25 14 13 16 44 10 33 -7 -3 -6 -1 -7 6 -3 8 5 9 12 2 19
-10 13 12 41 23 30 3 -4 6 1 6 11 0 9 4 15 10 11 5 -3 7 -12 4 -19 -3 -8 -1
-17 5 -21 7 -3 8 0 5 9 -4 10 -1 16 7 16 11 0 11 2 -1 10 -12 8 -9 15 22 45
20 20 43 35 50 33 7 -2 13 2 13 7 0 5 -7 8 -15 6 -8 -1 -2 9 13 23 15 14 24
26 20 26 -4 1 3 7 17 15 14 8 20 14 13 15 -8 0 -7 9 5 29 10 19 19 25 24 18 3
-6 -1 -16 -9 -22 -13 -10 -13 -14 -3 -20 8 -5 11 -4 7 2 -4 6 0 13 8 17 11 4
13 11 6 29 -11 28 3 57 27 58 10 0 12 3 5 6 -19 7 -16 33 5 34 10 0 12 3 5 6
-10 3 -9 11 2 34 9 16 12 29 8 29 -5 0 3 9 17 20 14 11 17 18 8 14 -13 -4 -15
-1 -11 15 3 12 10 21 17 21 7 0 7 3 -1 8 -9 6 -10 17 -3 42 5 19 11 60 12 90
3 38 8 54 17 52 7 -1 10 2 6 8 -3 6 -11 8 -16 5 -13 -9 -11 9 4 24 10 11 10
13 0 7 -8 -5 -13 -1 -13 9 0 10 5 13 13 9 9 -6 9 -4 -1 8 -7 8 -13 41 -15 72
-1 31 -5 56 -9 56 -5 0 -8 16 -8 35 0 19 -5 35 -11 35 -5 0 -7 5 -4 10 4 6 11
7 17 4 7 -4 8 -2 4 5 -4 6 -12 9 -17 6 -8 -6 -13 17 -12 52 1 7 -3 10 -8 7 -5
-3 -9 4 -9 15 0 12 -5 21 -11 21 -5 0 -8 4 -4 9 3 5 0 13 -6 16 -5 4 -8 14 -5
22 3 8 1 11 -4 8 -14 -9 -12 8 3 25 10 12 9 12 -5 1 -15 -11 -19 -9 -35 23 -9
20 -20 36 -25 36 -4 0 -8 7 -8 15 0 8 -13 28 -30 43 -16 16 -30 34 -30 41 0 6
-5 11 -11 11 -15 0 -39 26 -32 34 4 3 0 6 -9 6 -8 0 -29 14 -47 30 -17 17 -31
28 -31 25 0 -3 -24 9 -52 28 -46 29 -80 47 -98 52 -41 10 -79 29 -75 36 4 5
-1 6 -9 3 -8 -3 -21 -2 -28 2 -6 4 -21 8 -32 9 -12 1 -46 5 -76 10 -30 4 -78
8 -106 9 -28 2 -55 5 -60 9 -6 3 -16 2 -24 -3 -9 -5 -20 -4 -29 3 -12 9 -13 9
-7 0 4 -7 3 -13 -3 -13 -5 0 -13 5 -16 10 -4 7 -13 7 -24 0 -12 -6 -22 -5 -31
3 -10 9 -11 9 -6 0 8 -15 -10 -18 -19 -3 -4 7 -13 7 -24 0 -12 -6 -22 -5 -31
3 -10 9 -11 9 -6 0 8 -15 -10 -18 -19 -3 -4 7 -13 7 -24 0 -11 -6 -21 -6 -28
1 -5 5 -13 6 -17 2z m100 -289 c-3 -8 -1 -14 4 -14 6 0 10 6 10 14 0 8 11 14
27 14 29 0 57 -21 45 -33 -4 -4 3 -2 15 6 12 7 19 17 16 22 -3 5 -9 4 -13 -3
-5 -8 -10 -8 -14 -2 -7 11 19 24 28 14 10 -9 76 -9 76 1 0 4 5 5 11 1 8 -5 6
-10 -5 -16 -9 -5 -21 -6 -26 -3 -6 3 -10 4 -10 1 0 -3 10 -10 21 -17 12 -6 19
-7 15 -1 -7 11 22 26 43 23 7 -1 10 2 6 8 -3 7 0 8 9 5 9 -3 16 -10 16 -16 0
-5 -4 -7 -9 -4 -11 7 -8 -20 3 -31 4 -4 6 -1 4 7 -2 10 5 15 19 15 12 0 26 5
30 9 5 5 2 6 -6 1 -10 -6 -12 -4 -7 4 5 8 12 9 19 3 7 -5 20 -8 30 -7 14 3 16
0 7 -10 -9 -10 -2 -12 34 -11 37 2 43 0 38 -13 -5 -13 -3 -14 9 -5 11 9 25 4
64 -22 27 -19 45 -34 39 -34 -5 0 -16 6 -23 13 -10 10 -11 9 -6 -5 4 -10 17
-18 31 -18 27 0 28 -3 14 -30 -7 -13 -7 -21 0 -25 6 -4 10 -3 9 2 -3 19 2 33
12 33 6 0 8 -9 4 -22 -7 -23 -7 -23 10 -3 14 17 16 17 11 3 -3 -12 0 -18 9
-18 8 0 15 -5 15 -11 0 -5 -4 -8 -9 -5 -5 4 -8 -1 -7 -10 3 -20 25 -34 44 -26
10 3 13 1 8 -6 -3 -6 -2 -13 4 -17 15 -9 51 -96 44 -107 -4 -6 -1 -14 5 -18 7
-4 13 -22 14 -41 1 -19 6 -38 12 -42 6 -5 0 -7 -13 -4 -12 3 -20 1 -16 -4 3
-5 12 -9 20 -9 17 0 19 -30 2 -31 -10 0 -10 -2 0 -6 6 -2 12 -16 12 -29 0 -17
-4 -23 -12 -18 -6 4 -4 -3 5 -17 22 -30 21 -39 0 -40 -16 -1 -15 -2 1 -6 14
-4 16 -7 6 -13 -11 -7 -11 -12 1 -26 12 -16 12 -17 -4 -11 -13 5 -16 3 -10 -6
13 -21 13 -47 0 -47 -8 0 -7 -4 3 -10 8 -5 11 -10 5 -10 -5 0 -11 -16 -12 -36
-1 -20 -7 -42 -12 -47 -6 -6 -11 -19 -11 -29 0 -26 -46 -109 -55 -100 -4 4 -6
0 -3 -8 5 -16 2 -21 -58 -86 -22 -24 -45 -44 -51 -44 -6 0 -14 -7 -17 -16 -3
-9 -13 -14 -20 -11 -8 3 -17 -1 -20 -10 -4 -8 -13 -13 -20 -10 -8 3 -17 -1
-20 -10 -4 -9 -14 -13 -26 -10 -11 3 -18 1 -14 -4 3 -5 -1 -9 -8 -10 -7 0 -22
-3 -33 -5 -11 -3 -33 -7 -50 -9 -16 -2 -30 -5 -30 -6 0 0 -63 -2 -140 -3 -88
-2 -145 1 -154 8 -11 8 -13 8 -8 0 9 -15 -55 -14 -65 1 -5 6 -8 6 -8 -2 0 -6
-9 -9 -20 -6 -11 3 -20 10 -20 15 0 5 4 7 9 3 6 -3 6 7 0 27 -11 41 -11 41 1
33 6 -3 10 -1 10 4 0 6 -3 11 -7 11 -5 0 -8 16 -9 35 0 18 3 32 8 29 4 -3 8 0
8 5 0 6 -4 11 -8 11 -11 0 -9 54 3 62 6 5 4 8 -5 8 -13 0 -13 1 0 10 13 9 13
10 0 10 -13 0 -13 1 0 10 9 6 11 10 3 10 -7 0 -10 7 -7 15 5 11 10 13 19 5 8
-7 12 -5 12 5 0 7 -3 14 -6 13 -18 -2 -31 3 -31 13 0 5 4 7 10 4 6 -4 7 2 2
17 -10 28 -9 59 1 76 5 7 4 12 -2 12 -6 0 -11 5 -11 11 0 5 4 7 10 4 6 -4 7 2
2 17 -10 28 -9 59 1 76 5 7 4 12 -2 12 -6 0 -11 5 -11 11 0 5 4 7 10 4 6 -4 7
2 2 17 -10 28 -9 59 1 76 5 7 4 12 -2 12 -6 0 -11 5 -11 11 0 5 4 7 10 4 6 -4
7 2 2 17 -10 28 -9 59 1 76 5 7 4 12 -2 12 -6 0 -11 5 -11 11 0 5 5 7 12 3 6
-4 8 -3 5 3 -11 17 -16 64 -6 58 5 -4 9 -1 9 4 0 6 -3 11 -7 11 -5 0 -8 16 -9
35 0 18 3 32 8 29 4 -3 8 0 8 5 0 6 -4 11 -8 11 -11 0 -9 54 3 62 6 5 5 8 -2
8 -7 0 -13 5 -13 11 0 5 4 8 9 4 6 -3 6 7 0 27 -12 43 -12 43 8 27 17 -13 17
-13 1 12 -10 15 -13 31 -8 39 4 7 5 20 2 29 -4 11 1 9 16 -5 12 -11 32 -20 45
-19 12 1 29 -3 37 -9 13 -9 13 -9 3 5 -10 12 -10 18 0 29 6 8 2 6 -10 -4 -14
-12 -23 -15 -23 -7 0 7 -4 9 -10 6 -5 -3 -10 -1 -10 5 0 7 6 10 13 7 8 -3 20
-1 27 3 18 11 33 2 26 -16z m-72 0 c5 -14 4 -15 -9 -4 -17 14 -19 20 -6 20 5
0 12 -7 15 -16z m726 -199 c0 -9 -6 -12 -15 -9 -8 4 -12 10 -9 15 8 14 24 10
24 -6z m-180 -1229 c0 -3 -4 -8 -10 -11 -5 -3 -10 -1 -10 4 0 6 5 11 10 11 6
0 10 -2 10 -4z"/>
<path d="M1086 1908 c3 -4 11 -5 19 -1 21 7 19 12 -4 10 -11 0 -18 -5 -15 -9z"/>
<path d="M1286 1907 c3 -10 9 -15 12 -12 3 3 0 11 -7 18 -10 9 -11 8 -5 -6z"/>
<path d="M1384 1888 c0 -10 1 -18 3 -18 1 0 7 8 12 18 7 13 6 19 -2 19 -7 0
-13 -9 -13 -19z"/>
<path d="M953 1885 c0 -8 4 -15 9 -15 4 0 8 4 8 9 0 6 -4 12 -8 15 -5 3 -9 -1
-9 -9z"/>
<path d="M1217 1889 c7 -7 15 -10 18 -7 3 3 -2 9 -12 12 -14 6 -15 5 -6 -5z"/>
<path d="M1416 1871 c-3 -4 6 -6 19 -3 14 2 25 6 25 8 0 8 -39 4 -44 -5z"/>
<path d="M1505 1869 c-4 -6 -4 -13 -1 -16 3 -4 6 -1 6 6 0 7 5 9 10 6 8 -5 8
-11 0 -20 -8 -9 -8 -15 0 -20 6 -4 9 -1 8 6 -2 6 3 14 11 17 8 3 11 0 7 -7 -4
-6 -2 -11 3 -11 19 0 12 17 -13 34 -17 10 -27 12 -31 5z"/>
<path d="M1474 1855 c3 -23 12 -26 13 -5 1 11 -2 20 -7 20 -4 0 -7 -7 -6 -15z"/>
<path d="M950 1661 c0 -6 4 -13 10 -16 6 -3 7 1 4 9 -7 18 -14 21 -14 7z"/>
<path d="M1716 1661 c-3 -5 1 -14 9 -21 10 -9 15 -9 15 -1 0 6 -5 11 -11 11
-5 0 -7 5 -4 10 3 6 4 10 1 10 -3 0 -7 -4 -10 -9z"/>
<path d="M1743 1605 c0 -8 6 -16 14 -19 11 -4 11 -1 3 14 -13 24 -17 25 -17 5z"/>
<path d="M947 1493 c3 -7 6 -13 8 -13 2 0 5 6 8 13 3 8 -1 14 -8 14 -7 0 -11
-6 -8 -14z"/>
<path d="M946 1377 c3 -10 9 -15 12 -12 3 3 0 11 -7 18 -10 9 -11 8 -5 -6z"/>
<path d="M955 1340 c-3 -5 -1 -10 4 -10 6 0 11 5 11 10 0 6 -2 10 -4 10 -3 0
-8 -4 -11 -10z"/>
<path d="M947 1253 c3 -7 6 -13 8 -13 2 0 5 6 8 13 3 8 -1 14 -8 14 -7 0 -11
-6 -8 -14z"/>
<path d="M946 1137 c3 -10 9 -15 12 -12 3 3 0 11 -7 18 -10 9 -11 8 -5 -6z"/>
<path d="M955 1100 c-3 -5 -1 -10 4 -10 6 0 11 5 11 10 0 6 -2 10 -4 10 -3 0
-8 -4 -11 -10z"/>
<path d="M950 861 c0 -6 4 -13 10 -16 6 -3 7 1 4 9 -7 18 -14 21 -14 7z"/>
<path d="M1947 719 c7 -7 15 -10 18 -7 3 3 -2 9 -12 12 -14 6 -15 5 -6 -5z"/>
<path d="M1930 701 c0 -6 4 -13 10 -16 6 -3 7 1 4 9 -7 18 -14 21 -14 7z"/>
<path d="M1899 683 c-10 -11 -10 -14 -1 -9 6 4 12 2 12 -3 0 -6 5 -11 11 -11
8 0 9 4 0 13 -6 8 -8 17 -4 20 3 4 4 7 1 7 -3 0 -12 -8 -19 -17z"/>
<path d="M1850 623 c5 -2 8 -9 5 -13 -3 -5 -1 -11 4 -14 5 -4 8 2 7 11 -2 9
-8 18 -15 19 -6 1 -7 0 -1 -3z"/>
<path d="M1796 602 c-2 -4 -1 -14 4 -22 7 -11 9 -9 7 8 -1 24 -3 26 -11 14z"/>
<path d="M1776 565 c-3 -8 -1 -15 4 -15 6 0 10 7 10 15 0 8 -2 15 -4 15 -2 0
-6 -7 -10 -15z"/>
<path d="M1703 543 c-13 -9 -23 -20 -23 -25 0 -5 7 -3 15 5 8 9 20 17 27 20 7
2 11 7 8 10 -3 2 -15 -2 -27 -10z"/>
<path d="M1626 512 c-2 -4 -1 -14 3 -21 6 -10 10 -9 14 3 6 16 -8 32 -17 18z"/>
<path d="M1567 480 c-9 -11 -13 -20 -7 -20 5 0 14 9 20 20 6 11 9 20 8 20 -2
0 -11 -9 -21 -20z"/>
<path d="M621 444 c0 -11 3 -14 6 -6 3 7 2 16 -1 19 -3 4 -6 -2 -5 -13z"/>
<path d="M834 448 c-4 -7 -3 -8 4 -4 7 4 12 2 12 -3 0 -6 -5 -11 -11 -11 -5 0
-7 -5 -3 -11 5 -8 9 -7 15 4 6 9 17 13 29 10 12 -3 20 0 20 6 0 7 -4 9 -10 6
-5 -3 -18 -1 -29 5 -14 7 -22 7 -27 -2z"/>
<path d="M660 440 c0 -6 7 -10 15 -10 8 0 15 2 15 4 0 2 -7 6 -15 10 -8 3 -15
1 -15 -4z"/>
<path d="M744 430 c0 -13 4 -16 10 -10 7 7 7 13 0 20 -6 6 -10 3 -10 -10z"/>
<path d="M770 439 c0 -3 11 -6 25 -6 14 0 25 3 25 6 0 4 -11 7 -25 7 -14 0
-25 -3 -25 -7z"/>
<path d="M980 446 c0 -2 8 -10 18 -17 15 -13 16 -12 3 4 -13 16 -21 21 -21 13z"/>
<path d="M1090 439 c0 -4 14 -12 30 -18 18 -6 28 -6 25 -1 -4 6 -13 10 -21 10
-8 0 -13 4 -10 8 3 5 -1 9 -9 9 -8 0 -15 -4 -15 -8z"/>
<path d="M1237 443 c-3 -5 4 -15 16 -23 21 -12 21 -12 7 6 -8 10 -15 20 -16
22 -1 2 -4 -1 -7 -5z"/>
<path d="M1490 446 c0 -2 7 -7 16 -10 8 -3 12 -2 9 4 -6 10 -25 14 -25 6z"/>
<path d="M708 423 c7 -3 16 -2 19 1 4 3 -2 6 -13 5 -11 0 -14 -3 -6 -6z"/>
<path d="M1055 420 c-3 -5 -1 -10 4 -10 6 0 11 5 11 10 0 6 -2 10 -4 10 -3 0
-8 -4 -11 -10z"/>
</g>
</svg>
